<svg width="64" height="64" viewBox="0 0 64 64" fill="none" xmlns="http://www.w3.org/2000/svg">
  <rect width="64" height="64" rx="18" fill="url(#background)" />
  <path
    d="M31.7 17.4c-3.2-2.8-8.7-.5-8.7 4.3v.3c-3.5.8-5.9 3.8-5.9 7.4 0 1.5.4 2.8 1.1 4-1.3 1.4-2.1 3.3-2.1 5.4 0 4.2 3.4 7.6 7.6 7.6h.6c1.1 2.4 3.4 4 6.2 4h1.2V17.4Z"
    stroke="white"
    stroke-width="4"
    stroke-linecap="round"
    stroke-linejoin="round"
  />
  <path
    d="M32.3 17.4c3.2-2.8 8.7-.5 8.7 4.3v.3c3.5.8 5.9 3.8 5.9 7.4 0 1.5-.4 2.8-1.1 4 1.3 1.4 2.1 3.3 2.1 5.4 0 4.2-3.4 7.6-7.6 7.6h-.6c-1.1 2.4-3.4 4-6.2 4h-1.2V17.4Z"
    stroke="white"
    stroke-width="4"
    stroke-linecap="round"
    stroke-linejoin="round"
  />
  <path
    d="M24.3 28.2c2.7 0 4.8 2.1 4.8 4.8M25.8 39.3c1.9-.2 3.3-1.7 3.3-3.7M39.7 28.2c-2.7 0-4.8 2.1-4.8 4.8M38.2 39.3c-1.9-.2-3.3-1.7-3.3-3.7"
    stroke="#DCE7FF"
    stroke-width="2.4"
    stroke-linecap="round"
  />
  <defs>
    <linearGradient id="background" x1="10" y1="8" x2="56" y2="58" gradientUnits="userSpaceOnUse">
      <stop stop-color="#6D5DF7" />
      <stop offset=".55" stop-color="#4169E1" />
      <stop offset="1" stop-color="#1D4ED8" />
    </linearGradient>
  </defs>
</svg>
